HIERARCHY
ROOT Hips
{
	OFFSET 0.000000 83.214638 0.000000
	CHANNELS 6 Xposition Yposition Zposition Xrotation Yrotation Zrotation
	JOINT Pelvis
	{
		OFFSET 0.000000 0.000000 0.000000
		CHANNELS 3 Xrotation Yrotation Zrotation
		JOINT LeftUpLeg
		{
			OFFSET 8.479700 -4.795502 -0.379100
			CHANNELS 3 Xrotation Yrotation Zrotation
			JOINT LeftLeg
			{
				OFFSET 0.024144 -32.555107 0.112900
				CHANNELS 3 Xrotation Yrotation Zrotation
				JOINT LeftFoot
				{
					OFFSET -0.024144 -32.638630 -3.012600
					CHANNELS 3 Xrotation Yrotation Zrotation
					JOINT LeftToeBase
					{
						OFFSET 0.970200 -13.225400 11.864200
						CHANNELS 3 Xrotation Yrotation Zrotation
						End Site
						{
							OFFSET 0.000000 12.319262 0.000000
						}
					}
					JOINT LFootTongue
					{
						OFFSET 1.142400 -1.059800 6.665200
						CHANNELS 3 Xrotation Yrotation Zrotation
						End Site
						{
							OFFSET 0.000000 12.319262 0.000000
						}
					}
				}
				JOINT LeftPantLeg
				{
					OFFSET 0.918482 -16.533964 -2.284700
					CHANNELS 3 Xrotation Yrotation Zrotation
					End Site
					{
						OFFSET 0.350399 24.744368 0.000000
					}
				}
			}
		}
		JOINT RightUpLeg
		{
			OFFSET -8.479700 -4.795502 -0.379100
			CHANNELS 3 Xrotation Yrotation Zrotation
			JOINT RightLeg
			{
				OFFSET -0.023144 -32.555092 0.112900
				CHANNELS 3 Xrotation Yrotation Zrotation
				JOINT RightFoot
				{
					OFFSET 0.023144 -32.638641 -3.012700
					CHANNELS 3 Xrotation Yrotation Zrotation
					JOINT RightToeBase
					{
						OFFSET -0.970200 -13.225400 11.864200
						CHANNELS 3 Xrotation Yrotation Zrotation
						End Site
						{
							OFFSET 0.000000 12.319244 0.000000
						}
					}
					JOINT RFootTongue
					{
						OFFSET -1.142200 -1.059800 6.665200
						CHANNELS 3 Xrotation Yrotation Zrotation
						End Site
						{
							OFFSET 0.000000 12.319243 0.000000
						}
					}
				}
				JOINT RightPantLeg
				{
					OFFSET -0.919482 -16.533978 -2.284800
					CHANNELS 3 Xrotation Yrotation Zrotation
					End Site
					{
						OFFSET -0.350400 24.744419 0.000000
					}
				}
			}
		}
	}
	JOINT Spine
	{
		OFFSET 0.000000 7.722000 1.166200
		CHANNELS 3 Xrotation Yrotation Zrotation
		JOINT Spine1
		{
			OFFSET 0.000000 12.024101 0.248800
			CHANNELS 3 Xrotation Yrotation Zrotation
			JOINT Spine2
			{
				OFFSET 0.000000 11.502998 -0.491200
				CHANNELS 3 Xrotation Yrotation Zrotation
				JOINT Neck
				{
					OFFSET 0.000000 18.430702 -3.123100
					CHANNELS 3 Xrotation Yrotation Zrotation
					JOINT Head
					{
						OFFSET 0.000000 9.051102 1.034000
						CHANNELS 3 Xrotation Yrotation Zrotation
						JOINT HairB
						{
							OFFSET 0.208400 24.786102 24.822300
							CHANNELS 3 Xrotation Yrotation Zrotation
							End Site
							{
								OFFSET 0.000000 32.263779 0.000000
							}
						}
						JOINT HairA
						{
							OFFSET -7.081100 24.428299 23.196600
							CHANNELS 3 Xrotation Yrotation Zrotation
							End Site
							{
								OFFSET 0.000000 32.263779 0.000000
							}
						}
						JOINT Hat
						{
							OFFSET 16.728800 15.048294 -15.439601
							CHANNELS 3 Xrotation Yrotation Zrotation
							End Site
							{
								OFFSET 0.000000 32.263779 0.000000
							}
						}
					}
				}
				JOINT LeftShoulder
				{
					OFFSET 6.197800 13.665199 -4.064700
					CHANNELS 3 Xrotation Yrotation Zrotation
					JOINT LeftArm
					{
						OFFSET 7.778100 -0.187103 -1.709300
						CHANNELS 3 Xrotation Yrotation Zrotation
						JOINT LeftForeArm
						{
							OFFSET 22.049376 0.000000 0.000000
							CHANNELS 3 Xrotation Yrotation Zrotation
							JOINT LeftHand
							{
								OFFSET 23.009392 0.000000 0.000000
								CHANNELS 3 Xrotation Yrotation Zrotation
								JOINT LeftHandThumb1
								{
									OFFSET 3.507191 -2.063065 3.133727
									CHANNELS 3 Xrotation Yrotation Zrotation
									JOINT LeftHandThumb2
									{
										OFFSET 3.101337 -1.790558 1.790558
										CHANNELS 3 Xrotation Yrotation Zrotation
										JOINT LeftHandThumb3
										{
											OFFSET 3.058640 -1.765907 1.765906
											CHANNELS 3 Xrotation Yrotation Zrotation
											End Site
											{
												OFFSET -0.415260 3.926476 -0.049563
											}
										}
									}
								}
								JOINT LeftHandIndex1
								{
									OFFSET 11.334419 -0.901459 3.706815
									CHANNELS 3 Xrotation Yrotation Zrotation
									JOINT LeftHandIndex2
									{
										OFFSET 3.283112 0.000000 0.000000
										CHANNELS 3 Xrotation Yrotation Zrotation
										JOINT LeftHandIndex3
										{
											OFFSET 3.323853 0.000000 0.000000
											CHANNELS 3 Xrotation Yrotation Zrotation
											End Site
											{
												OFFSET -1.135597 3.097809 0.402452
											}
										}
									}
								}
								JOINT LeftHandMiddle1
								{
									OFFSET 11.335861 0.000000 0.000000
									CHANNELS 3 Xrotation Yrotation Zrotation
									JOINT LeftHandMiddle2
									{
										OFFSET 3.410492 0.000000 0.000000
										CHANNELS 3 Xrotation Yrotation Zrotation
										JOINT LeftHandMiddle3
										{
											OFFSET 3.312172 0.000000 0.000000
											CHANNELS 3 Xrotation Yrotation Zrotation
											End Site
											{
												OFFSET -1.150200 3.080154 0.400270
											}
										}
									}
								}
								JOINT LeftHandRing1
								{
									OFFSET 11.514786 -0.013176 -3.003090
									CHANNELS 3 Xrotation Yrotation Zrotation
									JOINT LeftHandRing2
									{
										OFFSET 3.053307 0.000000 0.000000
										CHANNELS 3 Xrotation Yrotation Zrotation
										JOINT LeftHandRing3
										{
											OFFSET 3.295807 0.000000 0.000000
											CHANNELS 3 Xrotation Yrotation Zrotation
											End Site
											{
												OFFSET -1.281006 3.013344 0.375733
											}
										}
									}
								}
								JOINT LeftHandPinky1
								{
									OFFSET 10.518692 -0.960396 -5.730441
									CHANNELS 3 Xrotation Yrotation Zrotation
									JOINT LeftHandPinky2
									{
										OFFSET 2.861649 0.000000 0.000000
										CHANNELS 3 Xrotation Yrotation Zrotation
										JOINT LeftHandPinky3
										{
											OFFSET 2.863380 0.000000 0.000000
											CHANNELS 3 Xrotation Yrotation Zrotation
											End Site
											{
												OFFSET -0.843597 2.711159 0.369971
											}
										}
									}
								}
							}
							JOINT LSleeve
							{
								OFFSET 6.676277 -0.344902 -1.011730
								CHANNELS 3 Xrotation Yrotation Zrotation
								End Site
								{
									OFFSET 0.000000 14.885353 0.000000
								}
							}
						}
					}
				}
				JOINT RightShoulder
				{
					OFFSET -6.197800 13.665199 -4.064700
					CHANNELS 3 Xrotation Yrotation Zrotation
					JOINT RightArm
					{
						OFFSET -7.778100 -0.187103 -1.709300
						CHANNELS 3 Xrotation Yrotation Zrotation
						JOINT RightForeArm
						{
							OFFSET -22.049376 0.000000 0.000000
							CHANNELS 3 Xrotation Yrotation Zrotation
							JOINT RightHand
							{
								OFFSET -23.009392 0.000000 0.000000
								CHANNELS 3 Xrotation Yrotation Zrotation
								JOINT RightHandThumb1
								{
									OFFSET -3.507191 -2.063065 3.133727
									CHANNELS 3 Xrotation Yrotation Zrotation
									JOINT RightHandThumb2
									{
										OFFSET -3.101337 -1.790558 1.790558
										CHANNELS 3 Xrotation Yrotation Zrotation
										JOINT RightHandThumb3
										{
											OFFSET -3.058640 -1.765907 1.765906
											CHANNELS 3 Xrotation Yrotation Zrotation
											End Site
											{
												OFFSET 0.415260 3.926476 -0.049563
											}
										}
									}
								}
								JOINT RightHandIndex1
								{
									OFFSET -11.334419 -0.901459 3.706815
									CHANNELS 3 Xrotation Yrotation Zrotation
									JOINT RightHandIndex2
									{
										OFFSET -3.283112 0.000000 0.000000
										CHANNELS 3 Xrotation Yrotation Zrotation
										JOINT RightHandIndex3
										{
											OFFSET -3.323853 0.000000 0.000000
											CHANNELS 3 Xrotation Yrotation Zrotation
											End Site
											{
												OFFSET 1.135597 3.097809 0.402452
											}
										}
									}
								}
								JOINT RightHandMiddle1
								{
									OFFSET -11.335861 0.000000 0.000000
									CHANNELS 3 Xrotation Yrotation Zrotation
									JOINT RightHandMiddle2
									{
										OFFSET -3.410492 0.000000 0.000000
										CHANNELS 3 Xrotation Yrotation Zrotation
										JOINT RightHandMiddle3
										{
											OFFSET -3.312172 0.000000 0.000000
											CHANNELS 3 Xrotation Yrotation Zrotation
											End Site
											{
												OFFSET 1.150200 3.080154 0.400270
											}
										}
									}
								}
								JOINT RightHandRing1
								{
									OFFSET -11.514786 -0.013176 -3.003090
									CHANNELS 3 Xrotation Yrotation Zrotation
									JOINT RightHandRing2
									{
										OFFSET -3.053307 0.000000 0.000000
										CHANNELS 3 Xrotation Yrotation Zrotation
										JOINT RightHandRing3
										{
											OFFSET -3.295807 0.000000 0.000000
											CHANNELS 3 Xrotation Yrotation Zrotation
											End Site
											{
												OFFSET 1.281006 3.013344 0.375733
											}
										}
									}
								}
								JOINT RightHandPinky1
								{
									OFFSET -10.518692 -0.960396 -5.730441
									CHANNELS 3 Xrotation Yrotation Zrotation
									JOINT RightHandPinky2
									{
										OFFSET -2.861649 0.000000 0.000000
										CHANNELS 3 Xrotation Yrotation Zrotation
										JOINT RightHandPinky3
										{
											OFFSET -2.863380 0.000000 0.000000
											CHANNELS 3 Xrotation Yrotation Zrotation
											End Site
											{
												OFFSET 0.843597 2.711159 0.369971
											}
										}
									}
								}
							}
							JOINT RSleeve
							{
								OFFSET -6.676277 -0.344902 -1.011730
								CHANNELS 3 Xrotation Yrotation Zrotation
								End Site
								{
									OFFSET 0.000000 14.885353 0.000000
								}
							}
						}
					}
				}
				JOINT Backpack
				{
					OFFSET 0.000000 -2.471497 36.677502
					CHANNELS 3 Xrotation Yrotation Zrotation
					End Site
					{
						OFFSET 0.000000 20.427315 0.000000
					}
				}
				JOINT Hood
				{
					OFFSET 0.000000 18.754097 -10.431000
					CHANNELS 3 Xrotation Yrotation Zrotation
					JOINT Hood1
					{
						OFFSET 0.000000 -5.011002 -7.685901
						CHANNELS 3 Xrotation Yrotation Zrotation
						End Site
						{
							OFFSET 0.000000 9.175140 0.000000
						}
					}
				}
				JOINT LHoodieString
				{
					OFFSET 5.250500 16.397697 3.089900
					CHANNELS 3 Xrotation Yrotation Zrotation
					JOINT LHoodieString1
					{
						OFFSET 0.257700 -6.364304 3.694600
						CHANNELS 3 Xrotation Yrotation Zrotation
						JOINT LHoodieString2
						{
							OFFSET 0.000000 -9.643799 2.679100
							CHANNELS 3 Xrotation Yrotation Zrotation
							End Site
							{
								OFFSET 0.000000 10.009018 0.000000
							}
						}
					}
				}
				JOINT RHoodieString
				{
					OFFSET -5.250500 16.397697 3.089900
					CHANNELS 3 Xrotation Yrotation Zrotation
					JOINT RHoodieString1
					{
						OFFSET -0.257700 -6.364304 3.694600
						CHANNELS 3 Xrotation Yrotation Zrotation
						JOINT RHoodieString2
						{
							OFFSET 0.000000 -9.643799 2.679100
							CHANNELS 3 Xrotation Yrotation Zrotation
							End Site
							{
								OFFSET 0.000000 10.009018 0.000000
							}
						}
					}
				}
			}
			JOINT LBackpack_Strap
			{
				OFFSET 15.223200 -7.719803 -6.610900
				CHANNELS 3 Xrotation Yrotation Zrotation
				End Site
				{
					OFFSET 0.000000 16.040596 0.000000
				}
			}
			JOINT RBackpack_Strap
			{
				OFFSET -15.223000 -7.719803 -6.610900
				CHANNELS 3 Xrotation Yrotation Zrotation
				End Site
				{
					OFFSET 0.000000 16.040596 0.000000
				}
			}
		}
	}
	JOINT BoyFacialAnim_Joint
	{
		OFFSET 1.000000 -82.208099 -1.550900
		CHANNELS 3 Xrotation Yrotation Zrotation
		End Site
		{
			OFFSET 0.000000 30.012791 0.000000
		}
	}
}
MOTION
Frames: 4
Frame Time: 0.033333
7.310783 80.194473 18.137207 -6.835611 -33.131106 -1.008094 -0.000000 0.000001 0.000000 -14.411329 18.116843 9.977105 21.745340 9.753315 3.101661 0.164748 5.044889 -9.170424 0.000000 -0.000000 -0.000000 0.000000 -0.000000 0.000000 0.000000 -0.000000 0.000001 -5.228103 -8.549387 -15.225258 21.645274 6.414117 -4.561915 -11.771082 -2.403121 13.834482 0.000000 -0.000000 -0.000000 0.000000 -0.000000 -0.000000 -0.000000 0.000003 0.000001 2.369180 -1.164539 0.675674 5.266376 -2.272875 0.753856 5.271569 -2.249545 0.791401 -3.188282 6.941642 -0.717842 4.092940 33.665248 -9.125826 0.000000 -0.000000 0.000000 0.000000 -0.000000 0.000000 0.000000 -0.000000 0.000000 0.745229 1.666648 -6.788461 -17.689821 -46.501625 -56.438553 0.000001 -52.088638 -0.000001 -93.028556 -12.698647 3.132695 -1.557108 -5.176225 4.829658 3.147581 -0.655008 0.008394 -0.000000 0.000003 0.000004 0.523457 2.637954 -22.444037 0.525546 2.642925 -22.488777 -0.000003 -0.000001 -0.000000 0.522737 2.636163 -22.428026 0.526270 2.644709 -22.504794 -0.000001 0.000001 0.000000 0.523474 2.637941 -22.444046 0.525531 2.642928 -22.488775 -0.000001 0.000000 -0.000000 2.063094 6.390595 -22.054864 0.530604 -1.415933 -22.961527 -0.000003 -0.000000 -0.000002 0.000001 0.000001 0.000000 6.674617 19.049227 4.441179 4.346244 35.233264 44.876583 -0.000011 84.475855 0.000045 -0.722437 -8.676841 -12.391427 -1.879266 -5.913441 -6.948830 6.082055 -25.291613 -1.277259 0.000001 -0.000002 0.000000 0.678889 -3.001521 25.483861 0.678883 -3.001511 25.483897 -0.000000 -0.000001 0.000003 0.678879 -3.001525 25.483868 0.678880 -3.001514 25.483916 0.000002 0.000000 -0.000000 0.678884 -3.001519 25.483861 0.678882 -3.001506 25.483907 0.000003 -0.000000 0.000002 0.678884 -3.001513 25.483859 0.678886 -3.001518 25.483905 -0.000000 -0.000000 0.000000 0.000001 0.000001 0.000001 0.000001 -0.000001 0.000000 0.000001 -0.000001 0.000000 0.000001 -0.000001 0.000000 0.000001 -0.000001 0.000000 0.000001 -0.000001 -0.000000 -0.000000 0.000001 -0.000000 0.000001 -0.000001 0.000000 0.000001 -0.000001 -0.000000 -0.000000 0.000001 -0.000000 0.000000 -0.000002 0.000000 0.000000 -0.000002 0.000000 -0.000000 0.000001 0.000000 
7.237419 80.134964 17.980251 -6.785209 -33.112323 -0.912286 -0.000000 0.000001 0.000000 -14.620150 17.943872 10.026960 21.889522 9.755327 3.102156 0.260150 5.138131 -9.271224 0.000000 0.000000 -0.000000 0.000000 0.000000 -0.000000 -0.000000 0.000000 -0.000000 -5.620744 -8.290394 -14.996621 22.372906 6.238063 -4.944606 -12.088416 -2.441016 13.891759 0.000000 0.000002 -0.000000 0.000000 0.000002 -0.000000 -0.000002 0.000003 0.000000 2.398974 -1.185757 0.579768 5.325840 -2.336498 0.667865 5.330436 -2.313907 0.711095 -3.306581 6.942983 -0.638020 4.141737 33.759661 -9.285628 0.000000 0.000000 0.000000 0.000000 0.000000 0.000000 0.000000 0.000000 0.000000 0.745412 1.584827 -6.403742 -17.852834 -46.656848 -56.323990 -0.000005 -51.763234 -0.000014 -91.952084 -13.103190 3.198393 -1.556789 -5.153205 4.833062 3.149887 -0.631432 0.010590 0.000001 0.000002 0.000002 0.520697 2.631215 -22.383556 0.522690 2.636052 -22.427003 -0.000003 -0.000003 -0.000002 0.519957 2.629429 -22.367539 0.523417 2.637842 -22.443027 0.000002 -0.000000 0.000000 0.520697 2.631213 -22.383561 0.522675 2.636050 -22.427013 0.000004 0.000003 -0.000000 2.056308 6.385485 -21.993911 0.527701 -1.422776 -22.899965 -0.000000 0.000002 -0.000002 0.000000 0.000002 0.000001 6.598320 19.002968 4.819274 4.994270 35.932683 43.946895 -0.000166 84.139605 0.000174 -1.677640 -8.039635 -14.386994 -1.879274 -5.913241 -6.948820 6.083290 -25.306343 -1.278009 -0.000002 0.000000 -0.000000 0.678791 -3.001359 25.482324 0.678819 -3.001385 25.482444 0.000002 -0.000002 0.000005 0.678791 -3.001362 25.482334 0.678815 -3.001385 25.482442 0.000002 -0.000004 0.000003 0.678802 -3.001355 25.482326 0.678803 -3.001371 25.482456 -0.000002 0.000001 0.000001 0.678789 -3.001350 25.482324 0.678813 -3.001386 25.482452 -0.000003 0.000002 -0.000005 0.000002 -0.000000 -0.000003 -0.000000 0.000000 -0.000000 -0.000000 0.000000 -0.000000 -0.000000 0.000000 -0.000000 -0.000000 0.000000 -0.000000 -0.000000 0.000000 -0.000000 -0.000000 0.000003 -0.000000 -0.000000 0.000000 -0.000000 -0.000000 0.000000 -0.000000 -0.000000 0.000003 -0.000000 -0.000000 -0.000002 0.000000 -0.000000 -0.000002 0.000000 -0.000000 0.000001 0.000000 
7.129670 80.046616 17.726625 -6.776605 -32.971574 -0.838492 -0.000000 -0.000001 -0.000000 -14.881092 17.446509 10.077427 22.107733 9.755215 3.109596 0.437032 5.389003 -9.445091 0.000000 0.000000 -0.000000 0.000000 0.000000 -0.000000 0.000000 0.000000 -0.000000 -6.102722 -8.031727 -14.646535 23.379365 5.932819 -5.450039 -12.526292 -2.490936 13.951723 -0.000000 -0.000000 -0.000000 -0.000000 -0.000000 -0.000000 -0.000001 0.000001 0.000003 2.452918 -1.213101 0.427446 5.429973 -2.425085 0.542327 5.433681 -2.404046 0.593978 -3.499817 6.915881 -0.469995 4.227220 33.814067 -9.464777 0.000000 -0.000000 -0.000000 0.000000 -0.000000 -0.000000 0.000000 -0.000000 -0.000000 0.751408 1.416419 -5.700627 -18.151533 -47.305945 -56.149397 0.000023 -50.845093 0.000018 -89.975025 -13.198316 2.758388 -1.556480 -5.128259 4.836763 3.152402 -0.606007 0.012967 -0.000000 -0.000000 0.000001 0.517641 2.623822 -22.317167 0.519622 2.628670 -22.360586 -0.000004 0.000000 -0.000003 0.516896 2.622054 -22.301158 0.520369 2.630450 -22.376615 0.000003 0.000000 0.000002 0.517643 2.623818 -22.317175 0.519620 2.628661 -22.360591 0.000003 0.000000 -0.000000 2.048859 6.379884 -21.927009 0.524588 -1.430155 -22.833744 0.000001 0.000001 -0.000000 0.000003 0.000001 -0.000001 6.489663 18.834175 5.162938 6.011572 36.347043 42.831488 -0.000077 83.845230 0.000003 -3.486912 -7.668635 -17.307329 -1.879274 -5.912701 -6.948713 6.084172 -25.316935 -1.278556 0.000003 0.000001 -0.000001 0.678617 -3.000979 25.478755 0.678642 -3.000998 25.479194 -0.000000 0.000002 0.000004 0.678613 -3.000974 25.478754 0.678642 -3.000997 25.479196 0.000001 0.000000 0.000001 0.678620 -3.000965 25.478759 0.678633 -3.001004 25.479194 -0.000000 0.000004 -0.000001 0.678612 -3.000958 25.478767 0.678637 -3.001005 25.479187 -0.000001 0.000001 0.000000 0.000001 -0.000000 0.000001 0.000001 0.000002 0.000000 0.000001 0.000002 0.000000 0.000001 0.000002 0.000000 0.000001 0.000002 0.000000 0.000001 0.000002 -0.000000 -0.000000 0.000000 0.000000 0.000001 0.000002 0.000000 0.000001 0.000002 -0.000000 -0.000000 0.000000 0.000000 0.000000 -0.000002 -0.000000 0.000000 -0.000002 -0.000000 -0.000000 -0.000001 -0.000000 
6.970661 79.950684 17.393452 -6.753892 -32.541723 -0.768369 0.000000 0.000000 0.000000 -15.179093 16.579060 10.095264 22.255405 9.750462 3.143109 0.763333 5.701340 -9.676873 0.000000 -0.000000 -0.000000 0.000000 -0.000000 -0.000000 -0.000000 0.000000 -0.000001 -6.544805 -7.825331 -14.257404 24.440336 5.519597 -5.829911 -13.041512 -2.533266 13.908417 0.000000 -0.000002 0.000000 0.000000 -0.000002 0.000000 -0.000000 -0.000002 0.000000 2.505569 -1.281518 0.258344 5.530083 -2.599350 0.420146 5.532977 -2.580523 0.481658 -3.636984 6.874468 -0.306563 4.269951 33.804324 -9.525603 0.000000 0.000000 0.000000 0.000000 0.000000 0.000000 0.000000 0.000000 0.000000 0.752192 1.279120 -4.968879 -18.217026 -48.616614 -55.588601 -0.000027 -49.374741 -0.000024 -84.865080 -11.727126 3.420096 -1.556138 -5.101357 4.840761 3.155113 -0.578649 0.015494 0.000002 0.000001 0.000001 0.514347 2.615747 -22.244750 0.516359 2.620738 -22.289443 -0.000001 -0.000000 -0.000002 0.513605 2.613964 -22.228746 0.517100 2.622519 -22.305458 0.000003 -0.000001 0.000002 0.514349 2.615750 -22.244763 0.516365 2.620732 -22.289445 -0.000000 -0.000001 -0.000002 2.040785 6.373724 -21.854017 0.521243 -1.438047 -22.762849 0.000002 -0.000001 -0.000000 -0.000001 0.000000 0.000001 6.410638 18.638837 5.266644 7.222537 35.907561 41.776678 0.000093 84.125268 -0.000060 -6.254768 -8.529836 -20.656934 -1.879271 -5.911841 -6.948561 6.084692 -25.323384 -1.278877 -0.000001 0.000001 0.000000 0.678312 -3.000344 25.473220 0.678365 -3.000453 25.474107 0.000000 -0.000001 0.000003 0.678311 -3.000351 25.473235 0.678372 -3.000442 25.474094 0.000001 0.000001 0.000002 0.678315 -3.000339 25.473225 0.678367 -3.000446 25.474092 -0.000001 0.000001 0.000004 0.678315 -3.000345 25.473213 0.678366 -3.000438 25.474097 -0.000004 -0.000002 -0.000000 0.000001 0.000001 -0.000000 0.000001 -0.000000 -0.000000 0.000001 -0.000000 -0.000000 0.000001 -0.000000 -0.000000 0.000001 -0.000000 -0.000000 0.000001 -0.000000 -0.000001 0.000001 0.000003 -0.000000 0.000001 -0.000000 -0.000000 0.000001 -0.000000 -0.000001 0.000001 0.000003 -0.000000 0.000000 0.000000 0.000000 0.000000 0.000000 0.000000 0.000000 0.000000 0.000000 
